<?xml version="1.0" standalone="no"?>
<!DOCTYPE svg PUBLIC "-//W3C//DTD SVG 20010904//EN"
 "http://www.w3.org/TR/2001/REC-SVG-20010904/DTD/svg10.dtd">
<svg version="1.0" xmlns="http://www.w3.org/2000/svg"
 width="700.000000pt" height="700.000000pt" viewBox="0 0 700.000000 700.000000"
 preserveAspectRatio="xMidYMid meet">
<metadata>
Created by potrace 1.14, written by Peter Selinger 2001-2017
</metadata>
<g transform="translate(0.000000,700.000000) scale(0.100000,-0.100000)"
fill="#000000" stroke="none">
<path d="M3439 6972 l-32 -29 1 -177 c0 -142 3 -182 16 -201 19 -29 48 -39 92
-30 58 10 65 33 65 207 0 84 0 163 0 175 -1 32 -41 72 -78 78 -26 4 -39 -1
-64 -23z"/>
<path d="M2228 6593 c-15 -9 -29 -26 -32 -37 -15 -55 -7 -68 112 -188 64 -66
126 -124 137 -130 71 -39 154 36 119 108 -8 17 -65 80 -127 142 -124 124 -155
139 -209 105z"/>
<path d="M4680 6603 c-22 -8 -239 -224 -255 -253 -38 -72 48 -152 120 -112 11
6 72 63 135 126 109 110 115 118 115 157 0 63 -56 103 -115 82z"/>
<path d="M3412 6178 c-349 -36 -631 -274 -724 -613 -25 -89 -34 -249 -19 -342
35 -227 179 -446 376 -574 86 -55 194 -95 336 -123 l26 -6 0 -545 0 -545
-1191 -3 c-655 -1 -1204 -6 -1219 -10 -15 -4 -57 -18 -92 -32 -213 -80 -375
-281 -410 -511 -6 -39 -8 -41 -58 -54 -203 -51 -360 -205 -416 -409 -39 -139
-14 -319 60 -436 89 -140 209 -229 361 -265 235 -56 473 37 608 237 65 97 93
184 97 299 7 261 -155 489 -403 565 l-76 23 6 43 c7 56 57 159 101 210 51 59
122 109 201 140 l69 26 430 1 430 1 0 -627 c0 -470 -3 -628 -11 -628 -7 0 -45
-11 -84 -24 -144 -49 -264 -154 -330 -290 -46 -93 -50 -111 -57 -226 -22 -368
315 -656 684 -585 259 50 450 274 458 538 8 267 -146 482 -406 567 l-78 26 2
624 2 625 650 1 c358 0 655 -1 661 -3 12 -4 17 -2112 5 -2114 -135 -17 -276
-104 -368 -224 -79 -104 -114 -219 -110 -360 8 -241 162 -445 397 -525 86 -30
248 -33 330 -6 194 62 322 184 388 368 36 102 39 233 8 340 -57 196 -220 352
-413 397 l-51 13 1 1056 2 1057 665 0 665 0 3 -627 c1 -346 -1 -628 -5 -629
-60 -6 -175 -53 -238 -98 -110 -79 -179 -178 -226 -326 -8 -22 -13 -86 -13
-145 1 -109 19 -184 67 -270 97 -177 296 -294 505 -299 134 -3 299 66 402 169
229 228 229 578 0 809 -72 72 -177 132 -267 151 l-48 11 0 627 0 627 425 -1
c411 -1 427 -2 488 -23 149 -51 253 -154 303 -298 29 -87 27 -100 -23 -113
-208 -53 -368 -213 -422 -420 -21 -81 -14 -238 14 -317 87 -245 322 -403 580
-388 230 13 437 172 511 393 32 95 33 249 2 347 -23 72 -77 165 -129 221 -71
77 -188 144 -284 165 l-48 10 -11 63 c-46 265 -259 478 -525 525 -40 7 -448
11 -1227 11 l-1167 0 1 547 2 546 30 4 c55 7 177 43 234 70 189 89 358 271
429 464 95 260 51 570 -112 784 -139 182 -334 298 -556 330 -69 10 -118 11
-198 3z m258 -193 c226 -64 406 -249 465 -475 20 -78 23 -225 6 -300 -7 -30
-33 -97 -58 -149 -125 -261 -422 -410 -711 -355 -96 18 -164 46 -242 98 -277
186 -373 536 -229 832 88 179 259 315 455 358 83 19 233 14 314 -9z m-3028
-3329 c102 -14 207 -83 268 -177 130 -201 53 -469 -163 -572 -112 -53 -226
-52 -342 2 -219 102 -295 366 -164 573 59 93 170 163 275 174 32 4 61 8 63 10
2 2 7 2 10 0 3 -2 27 -7 53 -10z m5954 -32 c158 -74 249 -247 223 -418 -39
-244 -298 -400 -525 -315 -280 105 -359 447 -150 653 120 119 302 151 452 80z
m-4486 -810 c106 -31 194 -108 241 -209 33 -71 39 -99 40 -180 1 -103 -61
-231 -141 -295 -233 -185 -569 -75 -644 211 -53 203 72 414 284 480 44 13 164
10 220 -7z m3063 -18 c234 -112 305 -405 147 -605 -204 -257 -608 -174 -701
144 -11 36 -13 126 -4 179 17 98 108 221 199 268 76 39 117 48 211 45 74 -3
100 -8 148 -31z m-1535 -850 c93 -34 170 -106 216 -201 124 -258 -57 -552
-349 -566 -104 -5 -213 38 -291 116 -61 61 -91 115 -108 199 -29 138 8 263
108 361 113 111 274 146 424 91z"/>
<path d="M1890 5392 c-62 -7 -95 -49 -84 -106 11 -59 39 -69 198 -68 222 0
214 0 241 27 35 34 34 88 -1 120 -15 14 -32 25 -38 26 -49 2 -296 3 -316 1z"/>
<path d="M4803 5389 c-50 -6 -70 -22 -82 -63 -10 -37 8 -79 41 -97 14 -7 82
-12 190 -12 153 0 171 2 195 19 52 39 51 105 -1 139 -20 13 -54 17 -163 18
-76 1 -157 -1 -180 -4z"/>
<path d="M2465 4379 c-46 -12 -275 -247 -275 -282 0 -63 50 -107 107 -92 29 7
233 199 263 249 14 21 16 35 9 58 -16 59 -51 81 -104 67z"/>
<path d="M4485 4382 c-27 -5 -55 -32 -66 -60 -15 -39 13 -81 133 -200 131
-129 161 -143 214 -99 34 29 41 65 20 105 -21 39 -226 239 -256 250 -14 4 -34
6 -45 4z"/>
</g>
</svg>
