<svg xmlns="http://www.w3.org/2000/svg" viewBox="0 0 448 512"><!--!Font Awesome Free 6.7.2 by @fontawesome - https://fontawesome.com License - https://fontawesome.com/license/free Copyright 2025 Fonticons, Inc.--><path d="M320 448v40c0 13.3-10.7 24-24 24H24c-13.3 0-24-10.7-24-24V120c0-13.3 10.7-24 24-24h72v296c0 30.9 25.1 56 56 56h168zm0-344V0H152c-13.3 0-24 10.7-24 24v368c0 13.3 10.7 24 24 24h272c13.3 0 24-10.7 24-24V128H344c-13.2 0-24-10.8-24-24zm121-31L375 7A24 24 0 0 0 358.1 0H352v96h96v-6.1a24 24 0 0 0 -7-17z"/></svg>