<svg xmlns="http://www.w3.org/2000/svg" viewBox="0 0 512 512"><!--!Font Awesome Free 6.7.2 by @fontawesome - https://fontawesome.com License - https://fontawesome.com/license/free Copyright 2025 Fonticons, Inc.--><path d="M224 96l16-32 32-16-32-16-16-32-16 32-32 16 32 16 16 32zM80 160l26.7-53.3L160 80l-53.3-26.7L80 0 53.3 53.3 0 80l53.3 26.7L80 160zm352 128l-26.7 53.3L352 368l53.3 26.7L432 448l26.7-53.3L512 368l-53.3-26.7L432 288zm70.6-193.8L417.8 9.4C411.5 3.1 403.3 0 395.2 0c-8.2 0-16.4 3.1-22.6 9.4L9.4 372.5c-12.5 12.5-12.5 32.8 0 45.3l84.9 84.9c6.3 6.3 14.4 9.4 22.6 9.4 8.2 0 16.4-3.1 22.6-9.4l363.1-363.2c12.5-12.5 12.5-32.8 0-45.2zM359.5 203.5l-50.9-50.9 86.6-86.6 50.9 50.9-86.6 86.6z"/></svg>