<svg xmlns="http://www.w3.org/2000/svg" viewBox="0 0 448 512"><!--!Font Awesome Free 6.7.2 by @fontawesome - https://fontawesome.com License - https://fontawesome.com/license/free Copyright 2025 Fonticons, Inc.--><path d="M128 184c0-30.9 25.1-56 56-56h136V56c0-13.3-10.7-24-24-24h-80.6C204.3 12.9 183.6 0 160 0s-44.3 12.9-55.4 32H24C10.7 32 0 42.7 0 56v336c0 13.3 10.7 24 24 24h104V184zm32-144c13.3 0 24 10.7 24 24s-10.7 24-24 24-24-10.7-24-24 10.7-24 24-24zm184 248h104v200c0 13.3-10.7 24-24 24H184c-13.3 0-24-10.7-24-24V184c0-13.3 10.7-24 24-24h136v104c0 13.2 10.8 24 24 24zm104-38.1V256h-96v-96h6.1a24 24 0 0 1 17 7l65.9 65.9a24 24 0 0 1 7 17z"/></svg>