<svg xmlns="http://www.w3.org/2000/svg" viewBox="0 0 448 512"><!--!Font Awesome Free 6.7.2 by @fontawesome - https://fontawesome.com License - https://fontawesome.com/license/free Copyright 2025 Fonticons, Inc.--><path d="M278.1 256L444.5 89.6c4.7-4.7 4.7-12.3 0-17-32.8-32.8-86-32.8-118.8 0L210.2 188.1l-24.9-24.9c4.3-10.9 6.7-22.8 6.7-35.3 0-53-43-96-96-96S0 75 0 128s43 96 96 96c4.5 0 9-.3 13.4-.9L142.3 256l-32.9 32.9c-4.4-.6-8.8-.9-13.4-.9-53 0-96 43-96 96s43 96 96 96 96-43 96-96c0-12.5-2.4-24.3-6.7-35.3l24.9-24.9L325.7 439.4c32.8 32.8 86 32.8 118.8 0 4.7-4.7 4.7-12.3 0-17L278.1 256zM96 160c-17.6 0-32-14.4-32-32s14.4-32 32-32 32 14.4 32 32-14.4 32-32 32zm0 256c-17.6 0-32-14.4-32-32s14.4-32 32-32 32 14.4 32 32-14.4 32-32 32z"/></svg>