<?xml version="1.0" encoding="utf-8"?>
<svg version="1.1" id="Layer_1" xmlns="http://www.w3.org/2000/svg" xmlns:xlink="http://www.w3.org/1999/xlink" x="0px" y="0px"
	 viewBox="0 0 1537.991 1659.557" enable-background="new 0 0 1537.991 1659.557" xml:space="preserve">
<g>
	<path fill="#2D1F1F" stroke="#2D1F1F" d="M512.139,104.054c69.954-43.33,150.545-70.302,232.985-73.826
		c70.215-2.675,141.605,6.395,207.252,32.149c49.594,19.772,95.665,50.9,127.836,93.99c28.691,37.609,44.657,83.245,53.423,129.315
		c9.506,50.682,18.206,101.908,17.619,153.656c0.305,24.601-1.153,49.181-3.154,73.696c-2.306,25.493-3.198,51.378-9.941,76.219
		c-14.008,68.649-40.176,133.948-59.383,201.184c-0.783,1.979-1.653,3.937-2.589,5.851c-4.242-39.893,1.762-79.873,4.916-119.636
		c3.263-27.625,6.526-55.272,9.223-82.984c2.545-28.582,6.025-57.316,3.633-86.029c-10.311-49.486-26.581-97.623-47.028-143.824
		c-2.915-6.787-6.243-14.008-13.16-17.554c-44.591-27.777-96.883-39.393-148.174-47.441c-52.487-7.983-105.714-10.267-158.724-8.418
		c-56.185,3.132-112.806,9.527-166.446,27.364c-20.403,7.178-40.633,15.792-58.165,28.647c-6.417,4.394-8.744,12.159-11.855,18.881
		c-19.511,44.178-35.086,90.162-45.353,137.363c-1.914,8.483-2.567,17.162-2.414,25.841c0.087,75.001,8.592,149.653,12.138,224.523
		c0.696,25.667,3.111,51.487-0.065,77.089c-0.305,1.892-1.066,3.611-2.284,5.155c-21.6-79.786-37.392-160.986-52.922-242.099
		c-2.349-14.204-4.698-28.408-6.504-42.677c-4.176-45.005-1.24-90.292,3.067-135.167c3.807-43.373,3.306-87.03,7.243-130.359
		c10.419-62.559,45.744-118.309,89.096-163.466C498.478,115.148,504.351,108.361,512.139,104.054z"/>
	<path fill="#A5663A" stroke="#A5663A" d="M726.874,290.403c53.009-1.849,106.236,0.435,158.724,8.418
		c51.291,8.048,103.583,19.664,148.174,47.441c6.917,3.546,10.245,10.767,13.16,17.554c20.447,46.201,36.717,94.338,47.028,143.824
		c2.393,28.712-1.088,57.447-3.633,86.029c-2.697,27.712-5.96,55.359-9.223,82.984c-3.154,39.763-9.157,79.743-4.916,119.636
		c0.935-1.914,1.805-3.872,2.589-5.851c19.207-67.235,45.375-132.535,59.383-201.184c0.413,0.827,1.197,2.501,1.61,3.328
		c12.79-0.196,25.776,3.915,35.086,12.921c18.75,17.336,25.45,43.982,25.515,68.736c0.827,41.372-16.336,80.613-38.283,114.807
		c-11.79,17.358-25.428,34.433-43.939,45.005c-6.787,4.068-14.661,5.416-22.405,6.112c-5.199,20.295-9.745,41.089-17.684,60.427
		c1.109-7.396,2.741-14.704,3.872-22.078c-6.591,6.634-11.268,14.791-16.858,22.231c-44.744,59.23-102.452,109.564-169.796,141.366
		c-18.859,8.527-39.675,15.096-60.601,12.051c-12.225-1.784-24.493-3.633-36.435-6.787c-10.68-2.958-19.881-10.985-31.432-10.55
		c-12.094-0.479-20.904,9.331-32.106,12.138c-15.052,4.111-30.801,5.917-46.375,5.634c-31.845-2.545-62.058-14.617-90.249-29.039
		c-56.272-29.887-105.91-72.173-144.955-122.463c-6.243-20.86-12.964-41.59-17.706-62.863
		c-25.471-6.765-43.308-27.864-57.817-48.594c-21.708-33.063-38.914-70.759-40.002-110.891c-0.696-23.949,3.85-49.442,19.163-68.584
		c10.071-12.66,26.298-21.36,42.743-18.989c15.531,81.113,31.323,162.313,52.922,242.099c1.218-1.544,1.979-3.263,2.284-5.155
		c3.176-25.602,0.761-51.422,0.065-77.089c-3.546-74.87-12.051-149.523-12.138-224.523c-0.152-8.679,0.5-17.358,2.414-25.841
		c10.267-47.202,25.841-93.185,45.353-137.363c3.111-6.721,5.438-14.487,11.855-18.881c17.532-12.855,37.761-21.469,58.165-28.647
		C614.068,299.931,670.688,293.536,726.874,290.403z"/>
	<path fill="#2D1F1F" stroke="#2D1F1F" d="M1065.073,900.741c5.59-7.439,10.267-15.596,16.858-22.231
		c-1.131,7.374-2.762,14.683-3.872,22.078c-5.003,22.252-13.073,43.743-22.709,64.386c-6.526,13.247-13.573,26.407-23.362,37.587
		c-29.213,36.717-65.321,67.409-104.562,92.946c-36.195,22.1-75.936,40.002-118.396,45.135c-30.3,4.524-61.275,3.654-91.402-1.697
		c-39.306-6.025-74.761-25.754-107.302-47.68c-32.715-24.014-65.908-47.876-93.881-77.502
		c-34.477-35.412-62.537-78.155-75.718-126.118c4.546,4.807,8.026,10.484,12.399,15.444c39.045,50.29,88.683,92.576,144.955,122.463
		c28.191,14.422,58.404,26.494,90.249,29.039c15.574,0.283,31.323-1.523,46.375-5.634c11.202-2.806,20.012-12.616,32.106-12.138
		c11.55-0.435,20.751,7.591,31.432,10.55c11.942,3.154,24.21,5.003,36.435,6.787c20.925,3.045,41.742-3.524,60.601-12.051
		C962.621,1010.305,1020.329,959.971,1065.073,900.741z"/>
	<path fill="#8E5C3A" stroke="#8E5C3A" d="M610.327,1091.266c32.541,21.926,67.997,41.655,107.302,47.68
		c30.126,5.351,61.101,6.221,91.402,1.697c42.46-5.133,82.201-23.035,118.396-45.135c2.088,16.075,1.109,32.41,2.328,48.572
		c-7.809,7.787-17.858,12.616-27.386,17.924c-33.52,15.922-68.497,29.409-105.105,36.217c-15.77,3.089-31.975,2.132-47.941,1.914
		c-22.339-1.979-44.156-7.744-65.386-14.791c-19.968-7.504-40.415-14.574-58.36-26.32c-5.786-3.72-11.355-7.766-17.249-11.289
		c-0.544-8.81,0-17.641,0.587-26.429C609.696,1111.299,608.674,1101.207,610.327,1091.266z"/>
	<path fill="#A5663A" stroke="#A5663A" d="M902.368,1162.003c9.527-5.307,19.577-10.136,27.386-17.924
		c0.413,16.553,2.741,32.976,5.307,49.333c2.784,19.142,14.095,38.24,32.671,45.614c14.878,5.351,30.061,9.81,45.092,14.748
		c-3.48,9.484-8.918,18.054-13.682,26.929c-19.424,35.608-40.763,70.172-64.299,103.213c-24.079,33.324-50.116,65.713-81.591,92.402
		c-21.513,18.206-46.419,34.129-74.718,38.523c-17.249,2.589-33.02-7.091-47.224-15.553c-32.671-21.687-60.47-49.747-86.812-78.546
		c-38.044-42.394-72.608-87.943-102.778-136.276c-5.851-10.049-12.529-19.751-16.597-30.692
		c14.465-4.807,29.082-9.158,43.504-14.139c16.988-6.047,28.887-22.013,32.824-39.219c3.567-17.38,5.046-35.064,6.874-52.683
		c5.895,3.524,11.463,7.57,17.249,11.289c17.945,11.746,38.392,18.815,58.36,26.32c21.23,7.048,43.047,12.812,65.386,14.791
		c15.966,0.218,32.171,1.175,47.941-1.914C833.871,1191.412,868.849,1177.926,902.368,1162.003z"/>
	<path fill="#99CC33" stroke="#99CC33" d="M274.477,1334.953c83.593-26.907,166.946-54.619,250.648-81.178
		c4.068,10.941,10.745,20.643,16.597,30.692c30.17,48.333,64.734,93.881,102.778,136.276c26.342,28.8,54.141,56.86,86.812,78.546
		c14.204,8.462,29.974,18.141,47.224,15.553c28.299-4.394,53.205-20.316,74.718-38.523c31.475-26.69,57.512-59.078,81.591-92.402
		c23.536-33.041,44.874-67.605,64.299-103.213c4.764-8.875,10.202-17.445,13.682-26.929
		c78.263,24.754,156.157,50.747,234.334,75.849c18.62,6.982,38.349,10.245,57.142,16.662
		c71.107,22.143,133.252,72.804,167.359,139.256c23.601,44.048,33.998,93.773,38.719,143.15c-7.787,1.457-15.727,1.044-23.579,1.001
		c-483.632-0.022-967.243,0.022-1450.876-0.022c-2.784-0.239-5.547-0.544-8.309-0.957c4.503-42.242,12.551-84.658,30.018-123.616
		c28.669-66.561,83.353-121.876,150.48-149.632C229.451,1346.286,252.073,1340.826,274.477,1334.953z"/>
</g>
</svg>
